# xmcd
#
# Track frame offsets:
#	150
#	12672
#	30302
#	47018
#	61889
#	74533
#	88315
#	104334
#	122583
#	142332
#
# Disc length: 2165 seconds
#
# Revision: 0
# Processed by: cddbd v1.5.2PL0 Copyright (c) Steve Scherf et al.
# Submitted via: EasyCDDAExtractor 16.0.6.1
#
DISCID=9008730a
DTITLE=Μιχαηλίδης Βασίλης - Θάλασσα, Μαύρη Θάλασσα
DYEAR=1900
DGENRE=Παραδ. Πόντου
TTITLE0=Μιχαηλίδης Βασίλης - Γοτσόγλου και Τερέκιοϊ [Βασ. Μιχαηλίδης-Σταύρος Μ
TTITLE0=ακρίδης]
TTITLE1=Μιχαηλίδης Βασίλης - Ταμάμα [Βασ. Μιχαηλίδης-Παν. Μωϋσιάδης]
TTITLE2=Μιχαηλίδης Βασίλης - Κοτσά Αναστάς [παραδ., στ. Βασ. Μιχαηλίδης]
TTITLE3=Μιχαηλίδης Βασίλης - Νασάν τη μάννα που γεννά [παραδοσιακό]
TTITLE4=Μιχαηλίδης Βασίλης - Θεριό [Γρηγ. Σουρμαΐδης]
TTITLE5=Μιχαηλίδης Βασίλης - Έλα παπόρ [παραδ., στ. Βασ. Μιχαηλίδης]
TTITLE6=Μιχαηλίδης Βασίλης - Ξεριζωμός [Βασ. Μιχαηλίδης]
TTITLE7=Αντωνιάδου Μαρία - Ο Πόντος ο ανάσπαλτον [παραδ., στ. Βασ. Μιχαηλίδης]
TTITLE8=Μιχαηλίδης Βασίλης - Πρόσφυγας έμνε, πρόσφυγας είμαι [Βασ. Μιχαηλίδης]
TTITLE9=Μιχαηλίδης Βασίλης-χορωδία - Να σταίνομέν την πόλ την Ρωμανίαν [Βασ. Μ
TTITLE9=ιχαηλίδης]
EXTD=
EXTT0=
EXTT1=
EXTT2=
EXTT3=
EXTT4=
EXTT5=
EXTT6=
EXTT7=
EXTT8=
EXTT9=
PLAYORDER=
